<svg id="angel" enable-background="new 0 0 300 300" height="512" viewBox="0 0 300 300" width="512" xmlns="http://www.w3.org/2000/svg"><g><path d="m43.152 98.703c2.362 0 4.277-1.915 4.277-4.276s-1.915-4.276-4.277-4.276-4.276 1.915-4.276 4.276 1.915 4.276 4.276 4.276z"/><path d="m86.825 48.036c2.211 0 4-1.791 4-4v-8c0-2.209-1.789-4-4-4s-4 1.791-4 4v8c0 2.209 1.789 4 4 4z"/><path d="m86.825 56.036c-2.211 0-4 1.791-4 4v8c0 2.209 1.789 4 4 4s4-1.791 4-4v-8c0-2.209-1.789-4-4-4z"/><path d="m70.825 56.036h8c2.211 0 4-1.791 4-4s-1.789-4-4-4h-8c-2.211 0-4 1.791-4 4s1.789 4 4 4z"/><path d="m94.825 56.036h8c2.211 0 4-1.791 4-4s-1.789-4-4-4h-8c-2.211 0-4 1.791-4 4s1.789 4 4 4z"/><path d="m253.215 56.017c-7.719 0-14 6.281-14 14s6.281 14 14 14 14-6.281 14-14-6.281-14-14-14zm0 20c-3.309 0-6-2.691-6-6s2.691-6 6-6 6 2.691 6 6-2.691 6-6 6z"/><path d="m199.152 42.703c2.362 0 4.277-1.915 4.277-4.276s-1.915-4.276-4.277-4.276-4.276 1.915-4.276 4.276 1.915 4.276 4.276 4.276z"/><path d="m221.747 99.552c-8.586-7.15-17.359-9.586-26.109-7.225-9.362 2.527-17.046 10.323-22.828 18.516-2.989-11.047-13.072-19.208-25.051-19.208-12.39 0-22.766 8.725-25.345 20.35-5.864-8.602-13.822-17.013-23.619-19.658-8.746-2.363-17.527.074-26.109 7.225-33.891 28.242-39.66 109.256-39.891 112.691-.078 1.178.367 2.332 1.223 3.15.746.719 1.742 1.115 2.77 1.115.141 0 .285-.008.426-.023 1.004-.107 23.754-2.785 36.055-23.859 5.348.717 15.555-.553 24.375-16.623 3.074-.129 8.438-.741 14.136-3.014l-33.609 76.369c-.43.973-.453 2.076-.066 3.064.387.99 1.148 1.785 2.125 2.211 20.316 8.887 41.832 13.33 64.402 13.33 22.484-.002 46.016-4.412 70.422-13.232 1.043-.377 1.883-1.168 2.316-2.188.438-1.018.434-2.172-.016-3.186l-30.054-68.292c-.036-.091-.073-.176-.116-.264l-3.22-7.318c5.2 1.865 9.99 2.398 12.828 2.519 8.824 16.072 19.031 17.34 24.375 16.623 12.301 21.074 35.051 23.752 36.055 23.859.141.016.285.023.426.023 1.027 0 2.023-.396 2.77-1.115.855-.818 1.301-1.973 1.223-3.15-.234-3.434-6.004-84.448-39.894-112.69zm-86.795 40.633c3.784 2.155 8.148 3.404 12.806 3.404 4.659 0 9.024-1.249 12.809-3.405l18.624 42.318c-5.534 12.485-17.659 20.513-31.433 20.513-13.656 0-25.907-8.023-31.452-20.459zm12.806-40.549c9.914 0 17.977 8.064 17.977 17.977s-8.062 17.977-17.977 17.977-17.977-8.064-17.977-17.977 8.063-17.977 17.977-17.977zm-30.465 60.65c-5.377 5.024-12.172 6.799-16.748 7.419.675-4.067.811-9.912-1.537-16.955-.695-2.094-2.949-3.234-5.059-2.529-2.094.699-3.227 2.965-2.527 5.061 3.341 10.028.382 16.59.204 16.966-5.84 11.667-11.873 14.171-15.469 14.473.942-4.783 1.675-12.417-1.364-18.494-.992-1.977-3.391-2.777-5.367-1.789s-2.777 3.391-1.789 5.367c2.578 5.15.857 13.481-.126 16.635-7.033 13.854-19.404 19.137-26.261 21.058 1.863-18.385 9.965-79.643 36.559-101.803 6.547-5.457 12.715-7.312 18.891-5.648 16.414 4.422 27.703 31.709 29.484 36.268-.021 1.588-.127 3.101-.273 4.559l-8.515 19.349c-.031.028-.072.035-.103.063zm-30.168 88.576 25.115-57.069c7.75 11.862 20.994 19.221 35.518 19.221 14.634 0 27.804-7.327 35.53-19.204l25.006 56.819c-43.887 15.015-84.602 15.099-121.169.233zm139.789-62.43c-.987-3.14-2.717-11.438-.121-16.626.988-1.977.188-4.379-1.789-5.367s-4.375-.188-5.367 1.789c-3.037 6.073-2.307 13.702-1.365 18.486-3.62-.3-9.644-2.816-15.475-14.479-.179-.386-3.125-6.934.211-16.952.699-2.096-.434-4.361-2.527-5.061-2.109-.705-4.363.436-5.059 2.529-2.351 7.052-2.211 12.901-1.534 16.969-4.112-.548-10.021-2.045-15.129-6.056l-10.825-24.598c.017-.041.052-.068.067-.11 3.242-8.908 14.895-32.902 29.719-36.904 6.172-1.668 12.352.186 18.902 5.645 26.559 22.131 34.68 83.35 36.555 101.773-6.866-1.957-19.284-7.29-26.263-21.038z"/><path d="m147.758 80.017c6.094 0 25.977-.715 25.977-9.926s-19.883-9.928-25.977-9.928-25.977.717-25.977 9.928 19.884 9.926 25.977 9.926zm0-11.854c7.285 0 12.633.961 15.668 1.928-3.035.967-8.383 1.926-15.668 1.926s-12.633-.959-15.668-1.926c3.035-.967 8.383-1.928 15.668-1.928z"/></g></svg>